<svg width="250" height="250" viewBox="0 0 250 250" fill="none" xmlns="http://www.w3.org/2000/svg">
<circle cx="125" cy="125" r="119" fill="#1EAF71" stroke="white" stroke-width="12"/>
<path d="M103.857 138.012C115.909 126.321 127.546 114.63 139.182 103.343C147.494 95.2803 155.39 87.6209 163.702 79.5584C169.936 73.9147 177.832 73.5115 183.235 78.349C189.053 83.9928 189.053 91.2491 182.404 97.6991C159.546 119.871 136.689 142.043 113.831 164.215C107.597 170.262 100.117 170.262 93.4672 164.215C84.7397 155.749 76.0123 147.284 67.2849 138.818C61.051 132.771 61.051 125.112 66.4537 119.871C71.8564 114.63 80.1682 115.033 85.9865 120.677C92.2204 126.321 97.6231 131.562 103.857 138.012Z" fill="white"/>
</svg>
