<svg width="500" height="89" viewBox="0 0 500 89" fill="none" xmlns="http://www.w3.org/2000/svg">
<path d="M24.3255 14.0679L3.40783 20.64C2.36113 20.9654 1.45733 21.6234 0.84158 22.5082C0.225831 23.393 -0.0661273 24.4533 0.0125958 25.5188L2.96498 64.7071C3.03782 65.6646 3.40663 66.5785 4.02303 67.3287C4.63944 68.079 5.47469 68.6307 6.41926 68.9115L24.355 74.3069C24.7222 74.4204 25.1118 74.4476 25.4919 74.3863C25.872 74.325 26.2317 74.1769 26.5415 73.9542C26.8513 73.7315 27.1023 73.4406 27.2739 73.1053C27.4456 72.7699 27.5329 72.3998 27.5288 72.0253V16.3352C27.5288 15.7083 27.2747 15.1068 26.8215 14.6609C26.3683 14.215 25.7526 13.9607 25.1078 13.9531C24.8425 13.9521 24.5786 13.9908 24.3255 14.0679V14.0679ZM20.2512 48.1048C18.775 48.1048 17.6088 46.3829 17.6088 44.2448C17.6088 42.1067 18.7897 40.3705 20.2512 40.3705C21.7126 40.3705 22.8788 42.1067 22.8788 44.2448C22.8788 46.3829 21.6978 48.1048 20.2512 48.1048Z" fill="white"/>
<path opacity="0.2" d="M27.5254 17.4121L35.1721 68.6109L27.5254 70.9499V17.4121Z" fill="#F4F4F4"/>
<path opacity="0.2" d="M0.00976562 25.5176L2.96215 64.7059C3.03499 65.6634 3.4038 66.5772 4.0202 67.3275C4.63661 68.0778 5.47186 68.6295 6.41643 68.9103L24.3521 74.3057L15.185 66.6431C11.5921 63.6386 9.04031 59.6298 7.87786 55.1635L0.00976562 25.5176Z" fill="white"/>
<path d="M44.7861 26.1206C45.1436 26.2332 45.4511 26.4609 45.6577 26.7661C45.8643 27.0712 45.9578 27.4358 45.9227 27.7995L45.4208 33.8693L45.2437 35.9643L48.4618 36.237L48.6389 34.1276L49.1556 28.0578C49.2429 26.9875 48.9568 25.9199 48.3435 25.027C47.7303 24.134 46.8255 23.4679 45.7751 23.136L38.2613 20.7826L36.918 20.3809V23.6812L37.1984 23.7673L44.7861 26.1206Z" fill="white"/>
<path d="M43.7059 53.9883L43.5731 55.5667L43.0416 61.8231C43.0214 62.1474 42.9006 62.4581 42.695 62.7142C42.4894 62.9704 42.2089 63.16 41.8902 63.258L36.7678 64.8365L34.7012 65.4535L35.1736 68.6104L37.7421 67.8211L42.8202 66.2571C43.7505 65.9751 44.5732 65.43 45.1833 64.6913C45.7933 63.9526 46.1629 63.0539 46.245 62.1101L46.7616 55.8537L46.9093 54.2609L43.7059 53.9883Z" fill="white"/>
<path d="M100.639 52.935C100.639 54.7683 100.199 56.4733 99.3188 58.05C98.4388 59.6267 97.1004 60.91 95.3038 61.9C93.5071 62.89 91.2888 63.385 88.6488 63.385C86.0821 63.385 83.7904 62.9267 81.7738 62.01C79.7938 61.0567 78.1988 59.7733 76.9888 58.16C75.8154 56.51 75.1371 54.64 74.9538 52.55H80.2888C80.3988 53.65 80.7654 54.7317 81.3888 55.795C82.0488 56.8217 82.9654 57.6833 84.1388 58.38C85.3488 59.04 86.7971 59.37 88.4838 59.37C90.6838 59.37 92.3704 58.7833 93.5438 57.61C94.7171 56.4367 95.3038 54.9333 95.3038 53.1C95.3038 51.5233 94.8821 50.24 94.0388 49.25C93.2321 48.26 92.2238 47.49 91.0138 46.94C89.8038 46.3533 88.1538 45.73 86.0638 45.07C83.6071 44.2633 81.6271 43.5117 80.1238 42.815C78.6571 42.0817 77.3921 41 76.3288 39.57C75.3021 38.14 74.7888 36.2517 74.7888 33.905C74.7888 31.8883 75.2654 30.11 76.2188 28.57C77.2088 27.03 78.6021 25.8383 80.3988 24.995C82.2321 24.1517 84.3771 23.73 86.8338 23.73C90.6471 23.73 93.6721 24.665 95.9088 26.535C98.1454 28.3683 99.4471 30.715 99.8138 33.575H94.4238C94.1304 32.035 93.3421 30.6783 92.0588 29.505C90.7754 28.3317 89.0338 27.745 86.8338 27.745C84.8171 27.745 83.2038 28.2767 81.9938 29.34C80.7838 30.3667 80.1787 31.8333 80.1787 33.74C80.1787 35.2433 80.5638 36.4717 81.3338 37.425C82.1404 38.3417 83.1304 39.075 84.3038 39.625C85.4771 40.1383 87.0904 40.725 89.1438 41.385C91.6371 42.1917 93.6354 42.9617 95.1388 43.695C96.6788 44.4283 97.9804 45.5467 99.0438 47.05C100.107 48.5167 100.639 50.4783 100.639 52.935ZM119.744 32.42C122.677 32.42 125.152 33.1533 127.169 34.62C129.222 36.0867 130.652 38.0483 131.459 40.505V32.805H136.464V63H131.459V55.3C130.652 57.7567 129.222 59.7183 127.169 61.185C125.152 62.6517 122.677 63.385 119.744 63.385C117.067 63.385 114.684 62.7617 112.594 61.515C110.504 60.2683 108.854 58.49 107.644 56.18C106.47 53.8333 105.884 51.0833 105.884 47.93C105.884 44.7767 106.47 42.0267 107.644 39.68C108.854 37.3333 110.504 35.5367 112.594 34.29C114.684 33.0433 117.067 32.42 119.744 32.42ZM121.174 36.875C118.094 36.875 115.619 37.865 113.749 39.845C111.915 41.7883 110.999 44.4833 110.999 47.93C110.999 51.3767 111.915 54.09 113.749 56.07C115.619 58.0133 118.094 58.985 121.174 58.985C123.154 58.985 124.914 58.5267 126.454 57.61C128.03 56.6933 129.259 55.41 130.139 53.76C131.019 52.0733 131.459 50.13 131.459 47.93C131.459 45.73 131.019 43.7867 130.139 42.1C129.259 40.4133 128.03 39.13 126.454 38.25C124.914 37.3333 123.154 36.875 121.174 36.875ZM157.794 25.655C155.117 25.6183 153.247 26.0767 152.184 27.03C151.157 27.9833 150.644 29.6333 150.644 31.98V32.805H157.794V37.205H150.644V63H145.639V37.205H141.294V32.805H145.639V31.595C145.639 24.3717 149.691 20.925 157.794 21.255V25.655ZM191.003 46.225C191.003 47.2883 190.93 48.205 190.783 48.975H166.638C166.748 52.4217 167.72 55.0067 169.553 56.73C171.423 58.4533 173.696 59.315 176.373 59.315C178.793 59.315 180.81 58.71 182.423 57.5C184.073 56.2533 185.081 54.6033 185.448 52.55H190.783C190.416 54.64 189.591 56.51 188.308 58.16C187.061 59.81 185.43 61.0933 183.413 62.01C181.396 62.9267 179.123 63.385 176.593 63.385C173.696 63.385 171.13 62.7617 168.893 61.515C166.656 60.2683 164.896 58.49 163.613 56.18C162.366 53.8333 161.743 51.0833 161.743 47.93C161.743 44.7767 162.366 42.0267 163.613 39.68C164.896 37.3333 166.656 35.5367 168.893 34.29C171.13 33.0433 173.696 32.42 176.593 32.42C179.526 32.42 182.075 33.0433 184.238 34.29C186.438 35.5367 188.106 37.205 189.243 39.295C190.416 41.385 191.003 43.695 191.003 46.225ZM185.943 46.555C186.053 44.3183 185.686 42.4483 184.843 40.945C184 39.4417 182.845 38.3233 181.378 37.59C179.911 36.8567 178.316 36.49 176.593 36.49C173.843 36.49 171.533 37.3517 169.663 39.075C167.793 40.7617 166.785 43.255 166.638 46.555H185.943ZM204.809 30.33V40.395H218.559V46.335H204.809V56.785H220.209V63H197.054V24.17H220.209V30.33H204.809ZM244.101 32.09C247.621 32.09 250.426 33.245 252.516 35.555C254.606 37.865 255.651 41.11 255.651 45.29V63H247.951V46.17C247.951 43.75 247.327 41.88 246.081 40.56C244.834 39.2033 243.129 38.525 240.966 38.525C238.766 38.525 237.006 39.24 235.686 40.67C234.366 42.1 233.706 44.1533 233.706 46.83V63H225.951V32.53H233.706V38.635C234.512 36.5817 235.832 34.9867 237.666 33.85C239.536 32.6767 241.681 32.09 244.101 32.09ZM278.754 56.345V63H274.684C271.274 63 268.652 62.175 266.819 60.525C265.022 58.875 264.124 56.125 264.124 52.275V39.075H259.889V32.53H264.124V24.995H271.879V32.53H278.699V39.075H271.879V52.385C271.879 53.8517 272.172 54.8783 272.759 55.465C273.346 56.0517 274.336 56.345 275.729 56.345H278.754ZM292.089 38.36C293.226 36.4167 294.729 34.895 296.599 33.795C298.469 32.6583 300.559 32.09 302.869 32.09V40.395H300.614C294.931 40.395 292.089 43.035 292.089 48.315V63H284.334V32.53H292.089V38.36ZM312.387 32.53L320.692 53.21L328.392 32.53H336.917L318.272 77.52H309.692L316.567 62.12L303.752 32.53H312.387ZM359.659 47.38V63H354.654V24.225H366.974C371.41 24.225 374.729 25.27 376.929 27.36C379.129 29.4133 380.229 32.2367 380.229 35.83C380.229 39.46 379.092 42.3017 376.819 44.355C374.545 46.3717 371.264 47.38 366.974 47.38H359.659ZM366.534 43.2C369.577 43.2 371.759 42.5583 373.079 41.275C374.435 39.9917 375.114 38.1767 375.114 35.83C375.114 33.41 374.435 31.5767 373.079 30.33C371.759 29.0467 369.577 28.405 366.534 28.405H359.659V43.2H366.534ZM398.45 32.42C401.383 32.42 403.858 33.1533 405.875 34.62C407.928 36.0867 409.358 38.0483 410.165 40.505V32.805H415.17V63H410.165V55.3C409.358 57.7567 407.928 59.7183 405.875 61.185C403.858 62.6517 401.383 63.385 398.45 63.385C395.773 63.385 393.39 62.7617 391.3 61.515C389.21 60.2683 387.56 58.49 386.35 56.18C385.176 53.8333 384.59 51.0833 384.59 47.93C384.59 44.7767 385.176 42.0267 386.35 39.68C387.56 37.3333 389.21 35.5367 391.3 34.29C393.39 33.0433 395.773 32.42 398.45 32.42ZM399.88 36.875C396.8 36.875 394.325 37.865 392.455 39.845C390.621 41.7883 389.705 44.4833 389.705 47.93C389.705 51.3767 390.621 54.09 392.455 56.07C394.325 58.0133 396.8 58.985 399.88 58.985C401.86 58.985 403.62 58.5267 405.16 57.61C406.736 56.6933 407.965 55.41 408.845 53.76C409.725 52.0733 410.165 50.13 410.165 47.93C410.165 45.73 409.725 43.7867 408.845 42.1C407.965 40.4133 406.736 39.13 405.16 38.25C403.62 37.3333 401.86 36.875 399.88 36.875ZM432.595 32.42C436.005 32.42 438.737 33.3183 440.79 35.115C442.88 36.875 444.145 39.2583 444.585 42.265H439.8C439.58 40.4683 438.828 39.0017 437.545 37.865C436.298 36.6917 434.612 36.105 432.485 36.105C430.688 36.105 429.277 36.545 428.25 37.425C427.26 38.2683 426.765 39.4233 426.765 40.89C426.765 41.99 427.095 42.8883 427.755 43.585C428.452 44.245 429.295 44.7583 430.285 45.125C431.312 45.455 432.705 45.8217 434.465 46.225C436.702 46.7383 438.498 47.27 439.855 47.82C441.248 48.3333 442.422 49.1767 443.375 50.35C444.365 51.5233 444.86 53.1 444.86 55.08C444.86 57.5367 443.925 59.535 442.055 61.075C440.222 62.615 437.765 63.385 434.685 63.385C431.092 63.385 428.158 62.5233 425.885 60.8C423.612 59.0767 422.273 56.675 421.87 53.595H426.71C426.893 55.4283 427.682 56.9133 429.075 58.05C430.505 59.1867 432.375 59.755 434.685 59.755C436.408 59.755 437.747 59.315 438.7 58.435C439.69 57.555 440.185 56.4 440.185 54.97C440.185 53.7967 439.837 52.8617 439.14 52.165C438.443 51.4683 437.582 50.9367 436.555 50.57C435.528 50.2033 434.117 49.8183 432.32 49.415C430.083 48.9017 428.287 48.3883 426.93 47.875C425.61 47.3617 424.473 46.555 423.52 45.455C422.603 44.3183 422.145 42.7967 422.145 40.89C422.145 38.36 423.08 36.325 424.95 34.785C426.82 33.2083 429.368 32.42 432.595 32.42ZM461.008 32.42C464.418 32.42 467.15 33.3183 469.203 35.115C471.293 36.875 472.558 39.2583 472.998 42.265H468.213C467.993 40.4683 467.242 39.0017 465.958 37.865C464.712 36.6917 463.025 36.105 460.898 36.105C459.102 36.105 457.69 36.545 456.663 37.425C455.673 38.2683 455.178 39.4233 455.178 40.89C455.178 41.99 455.508 42.8883 456.168 43.585C456.865 44.245 457.708 44.7583 458.698 45.125C459.725 45.455 461.118 45.8217 462.878 46.225C465.115 46.7383 466.912 47.27 468.268 47.82C469.662 48.3333 470.835 49.1767 471.788 50.35C472.778 51.5233 473.273 53.1 473.273 55.08C473.273 57.5367 472.338 59.535 470.468 61.075C468.635 62.615 466.178 63.385 463.098 63.385C459.505 63.385 456.572 62.5233 454.298 60.8C452.025 59.0767 450.687 56.675 450.283 53.595H455.123C455.307 55.4283 456.095 56.9133 457.488 58.05C458.918 59.1867 460.788 59.755 463.098 59.755C464.822 59.755 466.16 59.315 467.113 58.435C468.103 57.555 468.598 56.4 468.598 54.97C468.598 53.7967 468.25 52.8617 467.553 52.165C466.857 51.4683 465.995 50.9367 464.968 50.57C463.942 50.2033 462.53 49.8183 460.733 49.415C458.497 48.9017 456.7 48.3883 455.343 47.875C454.023 47.3617 452.887 46.555 451.933 45.455C451.017 44.3183 450.558 42.7967 450.558 40.89C450.558 38.36 451.493 36.325 453.363 34.785C455.233 33.2083 457.782 32.42 461.008 32.42Z" fill="white"/>
</svg>
